<svg width="35" height="35" viewBox="0 0 35 35" fill="none" xmlns="http://www.w3.org/2000/svg">
<path fill-rule="evenodd" clip-rule="evenodd" d="M13.6107 7.47128C13.6107 7.70522 13.6928 7.93175 13.8425 8.11147L15.7679 10.4219C15.9176 10.6016 15.9997 10.8281 15.9997 11.0621L15.9997 29.5C15.9997 30.0523 16.4474 30.5 16.9997 30.5H17.9997C18.5519 30.5 18.9997 30.0523 18.9997 29.5L18.9997 11.062C18.9997 10.8281 19.0817 10.6016 19.2314 10.4218L21.1516 8.11762C21.3045 7.93418 21.3867 7.70208 21.3833 7.46331L21.3554 5.48587C21.3476 4.93915 20.9022 4.5 20.3555 4.5H19.4205H17.4996H14.6107C14.0585 4.5 13.6107 4.94771 13.6107 5.5V7.47128ZM5.44697 14.8485C5.05098 15.2335 5.04206 15.8666 5.42705 16.2626L7.89679 18.8029C8.27413 19.191 8.27413 19.809 7.89679 20.1971L5.42705 22.7374C5.04206 23.1334 5.05098 23.7665 5.44697 24.1515L6.16396 24.8485C6.55995 25.2335 7.19305 25.2246 7.57803 24.8286L11.7421 20.5456L12.0809 20.1971C12.4583 19.809 12.4583 19.191 12.0809 18.8029L11.7421 18.4544L7.57803 14.1714C7.19305 13.7754 6.55995 13.7665 6.16396 14.1515L5.44697 14.8485ZM29.5526 24.1515C29.9486 23.7665 29.9575 23.1334 29.5725 22.7374L27.1028 20.1971C26.7255 19.809 26.7255 19.191 27.1028 18.8029L29.5725 16.2626C29.9575 15.8666 29.9486 15.2335 29.5526 14.8485L28.8356 14.1515C28.4397 13.7665 27.8065 13.7754 27.4216 14.1714L23.2575 18.4544L22.9187 18.8029C22.5413 19.191 22.5413 19.809 22.9187 20.1971L23.2575 20.5456L27.4216 24.8286C27.8065 25.2246 28.4397 25.2335 28.8356 24.8485L29.5526 24.1515Z" fill="black"/>
<rect x="1" y="1" width="33" height="33" rx="5" stroke="black" stroke-width="2"/>
</svg>
