<svg width="35" height="35" viewBox="0 0 35 35" fill="none" xmlns="http://www.w3.org/2000/svg">
<path d="M19.1826 32.9324C18.9535 32.8616 18.9656 32.8681 12.7568 28.1442L8.59153 24.9713L5.81869 24.952L3.04584 24.9327L2.7565 24.7396C2.37674 24.4886 2.14166 24.1282 2.06329 23.6841C1.9789 23.2143 1.9789 11.7843 2.06329 11.3145C2.14166 10.8704 2.37674 10.51 2.7565 10.259L3.04584 10.0659L5.81869 10.0466L8.59153 10.0273L9.07979 9.65405C13.2029 6.5005 18.7245 2.31721 18.9113 2.2078C19.49 1.86027 20.0627 1.95037 20.5389 2.46523C20.7318 2.67118 20.8704 2.89 20.9186 3.05733C21.0271 3.44348 21.0271 31.5552 20.9186 31.9413C20.8101 32.3275 20.3158 32.8359 19.9542 32.9324C19.6226 33.0225 19.4719 33.0225 19.1826 32.9324Z" fill="black"/>
<path d="M25.3288 21.9014C24.9094 21.7663 24.5089 21.3479 24.3837 20.9039C24.2585 20.4855 24.2585 20.4341 24.3837 20.0029C24.4776 19.6875 24.584 19.5523 25.5228 18.5805L26.5618 17.4993L25.5228 16.4181C24.5464 15.4077 24.4776 15.3176 24.3774 14.9636C24.2835 14.6354 24.2773 14.5324 24.3461 14.2364C24.5527 13.271 25.5791 12.7497 26.4115 13.1873C26.5743 13.271 27.1063 13.7537 27.6821 14.3329L28.6647 15.3369L29.6849 14.3007C30.242 13.7344 30.7614 13.2388 30.8303 13.2002C31.3185 12.9428 31.9757 12.9942 32.4138 13.3225C32.952 13.7215 33.1523 14.5839 32.8519 15.1953C32.7768 15.3498 32.2886 15.9225 31.7441 16.4889L30.7677 17.4993L31.7441 18.5162C32.2886 19.0761 32.7768 19.6489 32.8519 19.8033C33.2712 20.6464 32.758 21.7341 31.8505 21.9336C31.5313 22.0044 31.1119 21.9529 30.8303 21.7984C30.7614 21.7598 30.242 21.2643 29.6849 20.6979L28.6647 19.6618L27.6821 20.6657C27.1376 21.2128 26.5805 21.7212 26.4428 21.7984C26.0861 21.9851 25.6918 22.0173 25.3288 21.9014Z" fill="black"/>
</svg>
