<svg width="33" height="33" viewBox="0 0 33 33" fill="none" xmlns="http://www.w3.org/2000/svg">
<path fill-rule="evenodd" clip-rule="evenodd" d="M17.3848 10.6832C22.2469 11.5131 24.0919 17.401 20.531 20.7242C16.7286 24.2728 10.5227 21.4839 10.6797 16.2969C10.7855 12.799 14.0023 10.1058 17.3848 10.6832Z" fill="black"/>
<path fill-rule="evenodd" clip-rule="evenodd" d="M18.0398 0.037681C18.0398 0.060007 18.178 0.0753619 18.3789 0.0753619C18.5798 0.0753619 18.7181 0.0907168 18.7181 0.113043C18.7181 0.134238 18.824 0.150724 18.9607 0.150724C19.0942 0.150724 19.2126 0.165419 19.2238 0.183506C19.2349 0.201499 19.4012 0.228441 19.5933 0.243419C19.7855 0.258397 19.9597 0.28402 19.9804 0.300411C20.0157 0.328201 20.1109 0.348172 20.4612 0.401113C20.539 0.412794 20.6121 0.437569 20.6235 0.456127C20.635 0.474685 20.6932 0.489852 20.7529 0.489852C20.8127 0.489852 20.872 0.506808 20.8848 0.527532C20.8977 0.548257 20.957 0.565213 21.0167 0.565213C21.0765 0.565213 21.1358 0.58217 21.1486 0.602894C21.1614 0.623619 21.2208 0.640575 21.2805 0.640575C21.3402 0.640575 21.3996 0.657532 21.4124 0.678256C21.4252 0.698981 21.4761 0.715937 21.5255 0.715937C21.5748 0.715937 21.6236 0.729502 21.6339 0.746176C21.6442 0.762756 21.7395 0.800059 21.8458 0.82898C21.952 0.8579 22.0474 0.895204 22.0576 0.911783C22.0679 0.928457 22.1177 0.942022 22.1683 0.942022C22.2189 0.942022 22.2603 0.958979 22.2603 0.979703C22.2603 1.00043 22.3111 1.01738 22.3733 1.01738C22.4355 1.01738 22.4864 1.03434 22.4864 1.05506C22.4864 1.07579 22.5203 1.09275 22.5617 1.09275C22.6032 1.09275 22.6371 1.1097 22.6371 1.13043C22.6371 1.15115 22.688 1.16811 22.7502 1.16811C22.8123 1.16811 22.8632 1.18506 22.8632 1.20579C22.8632 1.22651 22.8971 1.24347 22.9386 1.24347C22.98 1.24347 23.0139 1.26043 23.0139 1.28115C23.0139 1.30187 23.0563 1.31883 23.1081 1.31883C23.16 1.31883 23.2024 1.33579 23.2024 1.35651C23.2024 1.37724 23.2363 1.39419 23.2777 1.39419C23.3192 1.39419 23.3531 1.41115 23.3531 1.43187C23.3531 1.4526 23.387 1.46955 23.4285 1.46955C23.4699 1.46955 23.5038 1.48651 23.5038 1.50724C23.5038 1.52796 23.5377 1.54492 23.5792 1.54492C23.6206 1.54492 23.6546 1.56187 23.6546 1.5826C23.6546 1.60332 23.6885 1.62028 23.7299 1.62028C23.7714 1.62028 23.8053 1.63723 23.8053 1.65796C23.8053 1.67868 23.8392 1.69564 23.8807 1.69564C23.9221 1.69564 23.956 1.7126 23.956 1.73332C23.956 1.75405 23.9864 1.771 24.0235 1.771C24.0879 1.771 24.5951 2.01762 24.6343 2.06812C24.6447 2.0814 24.7379 2.13415 24.8416 2.1854C24.9452 2.23655 25.0574 2.30833 25.0909 2.34498C25.1245 2.38162 25.1718 2.41158 25.1962 2.41158C25.2205 2.41158 25.2768 2.44549 25.3213 2.48694C25.3658 2.52839 25.4244 2.5623 25.4516 2.5623C25.4788 2.5623 25.501 2.57926 25.501 2.59998C25.501 2.62071 25.5222 2.63766 25.5481 2.63766C25.574 2.63776 25.6445 2.68015 25.7047 2.73186C25.7649 2.78368 25.8277 2.82607 25.8443 2.82607C25.8609 2.82607 25.9169 2.86846 25.9687 2.92027C26.0205 2.97208 26.0853 3.01447 26.1128 3.01447C26.1402 3.01447 26.1872 3.04838 26.217 3.08983C26.2469 3.13128 26.293 3.16519 26.3195 3.16519C26.3461 3.16519 26.3678 3.18215 26.3678 3.20288C26.3678 3.2236 26.3932 3.24056 26.4243 3.24056C26.4554 3.24056 26.4808 3.25704 26.4808 3.2773C26.4808 3.29745 26.5274 3.33843 26.5844 3.36839C26.6414 3.39835 26.7538 3.4835 26.8341 3.55774C26.9144 3.63197 26.9946 3.69273 27.0123 3.69273C27.0299 3.69273 27.1377 3.78599 27.2517 3.89997C27.3657 4.01396 27.4752 4.10722 27.4951 4.10722C27.515 4.10722 27.6468 4.22629 27.7879 4.37183C28.1678 4.76324 28.3354 4.93092 28.5889 5.17293C28.7145 5.29275 28.8172 5.40721 28.8172 5.42727C28.8172 5.44734 28.8341 5.46373 28.8548 5.46373C28.8756 5.46373 28.8925 5.48059 28.8925 5.50113C28.8925 5.52176 28.9943 5.64196 29.1186 5.76819C29.243 5.89452 29.3447 6.01349 29.3447 6.03262C29.3447 6.05165 29.3973 6.1223 29.4615 6.18946C29.5259 6.25663 29.6026 6.35818 29.6322 6.41517C29.6616 6.47216 29.7023 6.51879 29.7225 6.51879C29.7428 6.51879 29.7592 6.54423 29.7592 6.57532C29.7592 6.6064 29.7762 6.63184 29.7969 6.63184C29.8177 6.63184 29.8346 6.6535 29.8346 6.68007C29.8346 6.70654 29.8685 6.7527 29.91 6.78256C29.9514 6.81242 29.9853 6.85877 29.9853 6.88543C29.9853 6.91209 30.0362 6.98717 30.0984 7.05226C30.1606 7.11736 30.2114 7.18565 30.2114 7.20421C30.2114 7.22277 30.2454 7.2743 30.2868 7.31876C30.3283 7.36322 30.3622 7.42191 30.3622 7.44904C30.3622 7.47626 30.3791 7.4985 30.3999 7.4985C30.4206 7.4985 30.4375 7.52073 30.4375 7.54795C30.4375 7.57508 30.4715 7.63377 30.5129 7.67823C30.5544 7.7227 30.5883 7.77903 30.5883 7.80334C30.5883 7.82773 30.618 7.87502 30.6545 7.90856C30.6909 7.9421 30.7454 8.02038 30.7756 8.08255C30.8058 8.14472 30.8587 8.23798 30.8932 8.2898C31.0155 8.4733 31.2289 8.90955 31.2289 8.97596C31.2289 9.01308 31.2458 9.04341 31.2666 9.04341C31.2873 9.04341 31.3043 9.07733 31.3043 9.11878C31.3043 9.16022 31.3212 9.19414 31.3419 9.19414C31.3627 9.19414 31.3796 9.22805 31.3796 9.2695C31.3796 9.31095 31.3966 9.34486 31.4173 9.34486C31.438 9.34486 31.455 9.37877 31.455 9.42022C31.455 9.46167 31.4719 9.49558 31.4927 9.49558C31.5134 9.49558 31.5304 9.5295 31.5304 9.57095C31.5304 9.6124 31.5473 9.64631 31.568 9.64631C31.5888 9.64631 31.6057 9.68022 31.6057 9.72167C31.6057 9.76312 31.6227 9.79703 31.6434 9.79703C31.6641 9.79703 31.6811 9.83942 31.6811 9.89123C31.6811 9.94304 31.698 9.98544 31.7188 9.98544C31.7395 9.98544 31.7565 10.0193 31.7565 10.0608C31.7565 10.1022 31.7734 10.1362 31.7941 10.1362C31.8149 10.1362 31.8318 10.187 31.8318 10.2492C31.8318 10.3114 31.8488 10.3622 31.8695 10.3622C31.8902 10.3622 31.9072 10.3962 31.9072 10.4376C31.9072 10.4791 31.9241 10.513 31.9449 10.513C31.9656 10.513 31.9826 10.5638 31.9826 10.626C31.9826 10.6882 31.9964 10.7391 32.0135 10.7391C32.0304 10.7391 32.0677 10.8249 32.0963 10.9298C32.1248 11.0348 32.1618 11.1291 32.1784 11.1393C32.1951 11.1496 32.2087 11.1984 32.2087 11.2477C32.2087 11.2971 32.2256 11.348 32.2463 11.3608C32.2671 11.3736 32.284 11.4245 32.284 11.4738C32.284 11.5232 32.301 11.5741 32.3217 11.5869C32.3424 11.5997 32.3594 11.659 32.3594 11.7188C32.3594 11.7785 32.3763 11.8378 32.3971 11.8506C32.4178 11.8635 32.4348 11.9228 32.4348 11.9825C32.4348 12.0422 32.4517 12.1016 32.4724 12.1144C32.4932 12.1272 32.5101 12.1866 32.5101 12.2463C32.5101 12.306 32.5271 12.3654 32.5478 12.3782C32.5685 12.391 32.5855 12.4426 32.5855 12.4929C32.5855 12.5996 32.6563 12.9164 32.6997 13.0036C32.7162 13.0366 32.7418 13.2189 32.7567 13.4087C32.7715 13.5983 32.7984 13.7535 32.8165 13.7535C32.8345 13.7535 32.8493 13.8722 32.8493 14.0173C32.8493 14.168 32.8654 14.2811 32.887 14.2811C32.9093 14.2811 32.9246 14.4193 32.9246 14.6202C32.9246 14.8211 32.94 14.9593 32.9623 14.9593C32.9868 14.9593 33 15.4986 33 16.502C33 17.4899 32.9864 18.0531 32.9623 18.068C32.9416 18.0808 32.9246 18.2344 32.9246 18.4094C32.9246 18.5963 32.9091 18.7274 32.887 18.7274C32.8654 18.7274 32.8493 18.8404 32.8493 18.9912C32.8493 19.1362 32.8345 19.2549 32.8165 19.2549C32.7984 19.2549 32.7715 19.4102 32.7567 19.5998C32.7418 19.7895 32.7162 19.9718 32.6997 20.0049C32.6563 20.092 32.5855 20.4088 32.5855 20.5155C32.5855 20.5659 32.5685 20.6175 32.5478 20.6303C32.5271 20.6431 32.5101 20.7024 32.5101 20.7622C32.5101 20.8219 32.4932 20.8812 32.4724 20.8941C32.4517 20.9069 32.4348 20.9662 32.4348 21.0259C32.4348 21.0857 32.4178 21.145 32.3971 21.1578C32.3763 21.1706 32.3594 21.23 32.3594 21.2897C32.3594 21.3494 32.3424 21.4088 32.3217 21.4216C32.301 21.4344 32.284 21.4829 32.284 21.5294C32.284 21.5758 32.2697 21.6299 32.2523 21.6496C32.2348 21.6692 32.1797 21.8167 32.1298 21.9772C32.0799 22.1377 32.0264 22.2691 32.0108 22.2692C31.9953 22.2693 31.9826 22.3203 31.9826 22.3824C31.9826 22.4446 31.9656 22.4955 31.9449 22.4955C31.9241 22.4955 31.9072 22.5294 31.9072 22.5709C31.9072 22.6123 31.8902 22.6462 31.8695 22.6462C31.8488 22.6462 31.8318 22.6971 31.8318 22.7593C31.8318 22.8214 31.8149 22.8723 31.7941 22.8723C31.7734 22.8723 31.7565 22.9062 31.7565 22.9477C31.7565 22.9891 31.7395 23.023 31.7188 23.023C31.698 23.023 31.6811 23.0654 31.6811 23.1172C31.6811 23.169 31.6641 23.2114 31.6434 23.2114C31.6227 23.2114 31.6057 23.2453 31.6057 23.2868C31.6057 23.3282 31.5888 23.3622 31.568 23.3622C31.5473 23.3622 31.5304 23.3842 31.5304 23.4111C31.5304 23.4805 31.4417 23.6629 31.4079 23.6633C31.3923 23.6635 31.3796 23.6975 31.3796 23.739C31.3796 23.7804 31.3627 23.8143 31.3419 23.8143C31.3212 23.8143 31.3043 23.8482 31.3043 23.8897C31.3043 23.9311 31.2873 23.965 31.2666 23.965C31.2458 23.965 31.2288 23.9947 31.2287 24.031C31.2285 24.1062 30.9979 24.5743 30.927 24.6433C30.9163 24.6537 30.8657 24.7469 30.8145 24.8505C30.7633 24.9542 30.6915 25.0664 30.6549 25.0999C30.6182 25.1334 30.5883 25.1807 30.5883 25.2051C30.5883 25.2294 30.5544 25.2858 30.5129 25.3302C30.4715 25.3747 30.4375 25.4334 30.4375 25.4605C30.4375 25.4877 30.4206 25.51 30.3999 25.51C30.3791 25.51 30.3622 25.5322 30.3622 25.5594C30.3622 25.5866 30.3283 25.6452 30.2868 25.6897C30.2454 25.7342 30.2114 25.7857 30.2114 25.8043C30.2114 25.8228 30.1606 25.8911 30.0984 25.9562C30.0362 26.0213 29.9853 26.0964 29.9853 26.123C29.9853 26.1497 29.9514 26.196 29.91 26.2259C29.8685 26.2558 29.8346 26.3019 29.8346 26.3284C29.8346 26.355 29.8177 26.3766 29.7969 26.3766C29.7762 26.3766 29.7592 26.4021 29.7592 26.4331C29.7592 26.4642 29.746 26.4897 29.7297 26.4897C29.7135 26.4897 29.6724 26.5366 29.6386 26.5939C29.6046 26.6512 29.5247 26.7529 29.4609 26.8197C29.397 26.8864 29.3447 26.9562 29.3447 26.9748C29.3447 26.9933 29.2345 27.122 29.0998 27.2607C28.9651 27.3995 28.8548 27.527 28.8548 27.5441C28.8548 27.5612 28.6943 27.7337 28.4981 27.9274C28.3019 28.1211 28.1242 28.2965 28.1033 28.3172C28.0822 28.3379 27.9639 28.4608 27.8403 28.5904C27.7166 28.7199 27.5975 28.8259 27.5757 28.8259C27.5538 28.8259 27.5359 28.8428 27.5359 28.8636C27.5359 28.8843 27.5191 28.9012 27.4985 28.9012C27.4779 28.9012 27.3577 29.003 27.2314 29.1273C27.1051 29.2517 26.9846 29.3534 26.9637 29.3534C26.9427 29.3534 26.8781 29.4043 26.8199 29.4665C26.7618 29.5286 26.6993 29.5795 26.6808 29.5795C26.6623 29.5795 26.5843 29.6388 26.5074 29.7114C26.4305 29.7839 26.3459 29.8433 26.3194 29.8433C26.2929 29.8433 26.2469 29.8772 26.217 29.9186C26.1872 29.9601 26.1408 29.994 26.1141 29.994C26.0875 29.994 26.0124 30.0449 25.9473 30.107C25.8822 30.1692 25.8139 30.2201 25.7953 30.2201C25.7768 30.2201 25.7253 30.254 25.6808 30.2954C25.6363 30.3369 25.5776 30.3708 25.5505 30.3708C25.5233 30.3708 25.501 30.3878 25.501 30.4085C25.501 30.4292 25.4709 30.4462 25.434 30.4462C25.3971 30.4462 25.3425 30.4801 25.3126 30.5215C25.2828 30.563 25.2343 30.5969 25.2051 30.5969C25.1758 30.5969 25.1245 30.6268 25.0909 30.6635C25.0574 30.7001 24.9452 30.7721 24.8416 30.8234C24.7379 30.8748 24.6325 30.9362 24.6074 30.96C24.5821 30.9839 24.3956 31.0843 24.1929 31.1831C23.99 31.2819 23.8157 31.3754 23.8052 31.3908C23.7948 31.4063 23.7228 31.4309 23.645 31.4455C23.5674 31.46 23.5038 31.487 23.5038 31.5055C23.5038 31.5238 23.4699 31.5389 23.4285 31.5389C23.387 31.5389 23.3531 31.5559 23.3531 31.5766C23.3531 31.5973 23.3202 31.6143 23.28 31.6143C23.2398 31.6143 23.1963 31.6312 23.1835 31.6519C23.1707 31.6727 23.1273 31.6896 23.087 31.6896C23.0468 31.6896 23.0139 31.7066 23.0139 31.7273C23.0139 31.748 22.98 31.765 22.9386 31.765C22.8971 31.765 22.8632 31.7819 22.8632 31.8027C22.8632 31.8234 22.8123 31.8404 22.7502 31.8404C22.688 31.8404 22.6371 31.8573 22.6371 31.878C22.6371 31.8988 22.6032 31.9157 22.5617 31.9157C22.5203 31.9157 22.4864 31.9327 22.4864 31.9534C22.4864 31.9741 22.4355 31.9911 22.3733 31.9911C22.3111 31.9911 22.2603 32.008 22.2603 32.0288C22.2603 32.0495 22.2189 32.0664 22.1683 32.0664C22.1177 32.0664 22.0679 32.08 22.0576 32.0967C22.0474 32.1133 21.952 32.1506 21.8458 32.1795C21.7395 32.2084 21.6442 32.2457 21.6339 32.2623C21.6236 32.279 21.5748 32.2925 21.5255 32.2925C21.4761 32.2925 21.4252 32.3095 21.4124 32.3302C21.3996 32.3509 21.3402 32.3679 21.2805 32.3679C21.2208 32.3679 21.1614 32.3848 21.1486 32.4056C21.1358 32.4263 21.0765 32.4432 21.0167 32.4432C20.957 32.4432 20.8977 32.4602 20.8848 32.4809C20.872 32.5017 20.8127 32.5186 20.7529 32.5186C20.6932 32.5186 20.6339 32.5356 20.6211 32.5563C20.6082 32.577 20.5319 32.594 20.4515 32.594C20.371 32.594 20.2947 32.6109 20.2819 32.6317C20.2691 32.6524 20.2036 32.6693 20.1365 32.6693C20.0693 32.6693 19.9982 32.6847 19.9786 32.7033C19.9589 32.7221 19.8664 32.747 19.7732 32.7587C19.3351 32.8137 19.2595 32.8266 19.1891 32.8582C19.1476 32.8768 19.012 32.9014 18.8876 32.9129C18.7633 32.9243 18.5004 32.9488 18.3035 32.9673C17.8323 33.0116 15.1487 33.0106 14.6671 32.9661C14.4598 32.9469 14.1885 32.9217 14.0642 32.9101C13.9398 32.8985 13.822 32.8736 13.8023 32.8545C13.7826 32.8356 13.6861 32.8201 13.5879 32.8201C13.4896 32.8201 13.3987 32.8031 13.3859 32.7824C13.3731 32.7616 13.2883 32.7447 13.1975 32.7447C13.1066 32.7447 13.0219 32.7277 13.009 32.707C12.9962 32.6863 12.9199 32.6693 12.8395 32.6693C12.759 32.6693 12.6827 32.6524 12.6699 32.6317C12.6571 32.6109 12.5797 32.594 12.4981 32.594C12.4164 32.594 12.3496 32.577 12.3496 32.5563C12.3496 32.5356 12.2997 32.5186 12.2388 32.5186C12.1778 32.5186 12.1175 32.5017 12.1046 32.4809C12.0918 32.4602 12.023 32.4432 11.9516 32.4432C11.8803 32.4432 11.822 32.4263 11.822 32.4056C11.822 32.3848 11.7627 32.3679 11.6901 32.3679C11.6176 32.3679 11.5582 32.3509 11.5582 32.3302C11.5582 32.3095 11.5169 32.2925 11.4663 32.2925C11.4157 32.2925 11.3638 32.2756 11.351 32.2548C11.3382 32.2341 11.2873 32.2172 11.2379 32.2172C11.1886 32.2172 11.1377 32.2002 11.1249 32.1795C11.1121 32.1588 11.0612 32.1418 11.0118 32.1418C10.9625 32.1418 10.9116 32.1248 10.8988 32.1041C10.886 32.0834 10.8425 32.0664 10.8023 32.0664C10.7621 32.0664 10.7292 32.0495 10.7292 32.0288C10.7292 32.008 10.6783 31.9911 10.6162 31.9911C10.554 31.9911 10.5031 31.9741 10.5031 31.9534C10.5031 31.9327 10.4692 31.9157 10.4277 31.9157C10.3863 31.9157 10.3524 31.8988 10.3524 31.878C10.3524 31.8573 10.311 31.8404 10.2604 31.8404C10.2098 31.8404 10.1579 31.8234 10.1451 31.8027C10.1323 31.7819 10.0889 31.765 10.0486 31.765C10.0084 31.765 9.97554 31.748 9.97554 31.7273C9.97554 31.7066 9.93315 31.6896 9.88133 31.6896C9.82952 31.6896 9.78712 31.6727 9.78712 31.6519C9.78712 31.6312 9.75321 31.6143 9.71176 31.6143C9.67031 31.6143 9.63639 31.5973 9.63639 31.5766C9.63639 31.5559 9.61293 31.5389 9.5842 31.5389C9.55547 31.5389 9.4834 31.5136 9.42405 31.4826C9.3647 31.4517 9.28641 31.4262 9.25014 31.4261C9.21387 31.426 9.18419 31.4089 9.18419 31.3882C9.18419 31.3675 9.15753 31.3505 9.12493 31.3505C9.09243 31.3505 9.03949 31.3242 9.00736 31.2921C8.97524 31.2601 8.90015 31.224 8.84052 31.212C8.78079 31.2002 8.73199 31.1756 8.73199 31.1574C8.73199 31.1393 8.69808 31.1244 8.65662 31.1244C8.61517 31.1244 8.58126 31.1094 8.58126 31.0912C8.58126 31.0728 8.55158 31.0484 8.51531 31.0369C8.45059 31.0165 8.24154 30.8979 8.20443 30.8606C8.19406 30.8502 8.13471 30.8164 8.07254 30.7855C8.01036 30.7546 7.93207 30.6995 7.89853 30.6631C7.86499 30.6267 7.8177 30.5969 7.7933 30.5969C7.769 30.5969 7.71266 30.563 7.6682 30.5215C7.62373 30.4801 7.56503 30.4462 7.5379 30.4462C7.51068 30.4462 7.48844 30.4292 7.48844 30.4085C7.48844 30.3878 7.46621 30.3708 7.43899 30.3708C7.41185 30.3708 7.35316 30.3369 7.3087 30.2954C7.26423 30.254 7.2127 30.2201 7.19414 30.2201C7.17558 30.2201 7.10728 30.1692 7.04218 30.107C6.97708 30.0449 6.902 29.994 6.87534 29.994C6.84868 29.994 6.80233 29.9601 6.77246 29.9186C6.7426 29.8772 6.69926 29.8433 6.67609 29.8433C6.62475 29.8433 6.30057 29.5989 6.16388 29.457C6.10886 29.4 6.04857 29.3534 6.02992 29.3534C6.01117 29.3534 5.8902 29.2517 5.76114 29.1273C5.63207 29.003 5.51008 28.9012 5.49001 28.9012C5.44177 28.9012 4.09695 27.5556 4.09695 27.5073C4.09695 27.4867 3.99521 27.3665 3.87085 27.2403C3.7465 27.1139 3.64475 26.9935 3.64475 26.9725C3.64475 26.9515 3.59812 26.8895 3.54112 26.8344C3.39925 26.6978 3.15487 26.3736 3.15487 26.3223C3.15487 26.2991 3.12096 26.2558 3.07951 26.2259C3.03805 26.196 3.00414 26.1497 3.00414 26.123C3.00414 26.0964 2.95327 26.0213 2.89109 25.9562C2.82891 25.8911 2.77804 25.8228 2.77804 25.8043C2.77804 25.7857 2.74413 25.7342 2.70267 25.6897C2.66122 25.6452 2.62731 25.5866 2.62731 25.5594C2.62731 25.5322 2.61035 25.51 2.58962 25.51C2.5689 25.51 2.55194 25.4877 2.55194 25.4605C2.55194 25.4334 2.51803 25.3747 2.47657 25.3302C2.43512 25.2858 2.40121 25.2294 2.40121 25.2051C2.40121 25.1807 2.37021 25.1334 2.33244 25.0999C2.29456 25.0664 2.23955 24.9838 2.21015 24.9165C2.18076 24.8491 2.14393 24.794 2.12819 24.794C2.11255 24.794 2.09974 24.7601 2.09974 24.7187C2.09974 24.6772 2.08542 24.6433 2.06799 24.6433C2.05047 24.6433 1.99536 24.5628 1.94552 24.4643C1.89559 24.3659 1.84208 24.2797 1.82654 24.2728C1.81099 24.2658 1.79828 24.2396 1.79828 24.2143C1.79828 24.1475 1.70887 23.9657 1.67581 23.9653C1.66026 23.9651 1.64754 23.9311 1.64754 23.8897C1.64754 23.8482 1.63059 23.8143 1.60986 23.8143C1.58913 23.8143 1.57208 23.7846 1.57199 23.7484C1.5718 23.7121 1.54636 23.6338 1.51546 23.5745C1.48447 23.5151 1.45912 23.4431 1.45912 23.4143C1.45912 23.3856 1.44217 23.3622 1.42144 23.3622C1.40072 23.3622 1.38376 23.3282 1.38376 23.2868C1.38376 23.2453 1.3668 23.2114 1.34608 23.2114C1.32535 23.2114 1.30839 23.169 1.30839 23.1172C1.30839 23.0654 1.29144 23.023 1.27071 23.023C1.24998 23.023 1.23303 22.9901 1.23303 22.9499C1.23303 22.9097 1.21607 22.8663 1.19534 22.8535C1.17462 22.8406 1.15766 22.7887 1.15766 22.7382C1.15766 22.6876 1.1407 22.6462 1.11998 22.6462C1.09925 22.6462 1.08229 22.6123 1.08229 22.5709C1.08229 22.5294 1.06534 22.4955 1.04461 22.4955C1.02388 22.4955 1.00693 22.4446 1.00693 22.3824C1.00693 22.3203 0.993079 22.2694 0.976027 22.2694C0.959069 22.2694 0.921764 22.1836 0.893219 22.0786C0.864674 21.9737 0.827649 21.8794 0.811069 21.8691C0.794394 21.8589 0.78083 21.8101 0.78083 21.7607C0.78083 21.7114 0.763869 21.6605 0.743144 21.6477C0.722418 21.6349 0.705461 21.584 0.705461 21.5346C0.705461 21.4853 0.688503 21.4344 0.667777 21.4216C0.647051 21.4088 0.630095 21.3484 0.630095 21.2874C0.630095 21.2265 0.613138 21.1767 0.592413 21.1767C0.571687 21.1767 0.554726 21.1183 0.554726 21.047C0.554726 20.9757 0.53777 20.9069 0.517044 20.8941C0.496318 20.8812 0.479362 20.8209 0.479362 20.7599C0.479362 20.699 0.464101 20.6491 0.445448 20.6491C0.426795 20.6491 0.401924 20.5771 0.390148 20.489C0.338616 20.1038 0.318643 20.0069 0.286989 19.9873C0.26843 19.9758 0.253262 19.8921 0.253262 19.8013C0.253262 19.7105 0.236306 19.6257 0.21558 19.6129C0.194854 19.6001 0.177896 19.5092 0.177896 19.4109C0.177896 19.3127 0.162351 19.2162 0.143415 19.1965C0.124385 19.1768 0.0997037 19.059 0.088493 18.9346C0.0773764 18.8103 0.0494919 18.5136 0.0266936 18.2752C-0.0187147 17.8016 -0.002231 14.5574 0.0463804 14.3941C0.0722876 14.3071 0.102906 14.1022 0.162069 13.6216C0.174787 13.518 0.200508 13.4171 0.219255 13.3974C0.237908 13.3778 0.253262 13.2898 0.253262 13.2019C0.253262 13.114 0.26843 13.0327 0.286989 13.0212C0.318643 13.0016 0.338616 12.9047 0.390148 12.5195C0.401924 12.4314 0.426795 12.3593 0.445448 12.3593C0.464101 12.3593 0.479362 12.3095 0.479362 12.2485C0.479362 12.1876 0.496318 12.1272 0.517044 12.1144C0.53777 12.1016 0.554726 12.0327 0.554726 11.9614C0.554726 11.8901 0.571687 11.8318 0.592413 11.8318C0.613138 11.8318 0.630095 11.782 0.630095 11.721C0.630095 11.6601 0.647051 11.5997 0.667777 11.5869C0.688503 11.5741 0.705461 11.5232 0.705461 11.4738C0.705461 11.4245 0.722418 11.3736 0.743144 11.3608C0.763869 11.348 0.78083 11.2971 0.78083 11.2477C0.78083 11.1984 0.794394 11.1496 0.811069 11.1393C0.827649 11.1291 0.864674 11.0348 0.893219 10.9298C0.921764 10.8249 0.959069 10.7391 0.976027 10.7391C0.993079 10.7391 1.00693 10.6882 1.00693 10.626C1.00693 10.5638 1.02388 10.513 1.04461 10.513C1.06534 10.513 1.08229 10.4791 1.08229 10.4376C1.08229 10.3962 1.09925 10.3622 1.11998 10.3622C1.1407 10.3622 1.15766 10.3114 1.15766 10.2492C1.15766 10.187 1.17462 10.1362 1.19534 10.1362C1.21607 10.1362 1.23303 10.1022 1.23303 10.0608C1.23303 10.0193 1.24998 9.98544 1.27071 9.98544C1.29144 9.98544 1.30839 9.94304 1.30839 9.89123C1.30839 9.83942 1.32535 9.79703 1.34608 9.79703C1.3668 9.79703 1.38376 9.76312 1.38376 9.72167C1.38376 9.68022 1.40072 9.64631 1.42144 9.64631C1.44217 9.64631 1.45912 9.6124 1.45912 9.57095C1.45912 9.5295 1.47458 9.49558 1.49351 9.49558C1.51245 9.49558 1.5393 9.42776 1.55333 9.34486C1.56737 9.26196 1.59422 9.19414 1.61316 9.19414C1.63209 9.19414 1.64754 9.16748 1.64754 9.13488C1.64754 9.10239 1.67383 9.04944 1.70595 9.01732C1.73798 8.9852 1.77406 8.91012 1.78603 8.85049C1.7979 8.79076 1.81844 8.74197 1.83144 8.74197C1.84453 8.74197 1.87911 8.68686 1.90831 8.6195C1.93742 8.55215 2.00563 8.42922 2.05989 8.34632C2.11416 8.26342 2.1834 8.14472 2.21364 8.08255C2.24397 8.02038 2.29861 7.9421 2.33498 7.90856C2.37144 7.87502 2.40121 7.82773 2.40121 7.80334C2.40121 7.77903 2.43512 7.7227 2.47657 7.67823C2.51803 7.63377 2.55194 7.57508 2.55194 7.54795C2.55194 7.52073 2.5689 7.4985 2.58962 7.4985C2.61035 7.4985 2.62731 7.47626 2.62731 7.44904C2.62731 7.42191 2.66122 7.36322 2.70267 7.31876C2.74413 7.2743 2.77804 7.22277 2.77804 7.20421C2.77804 7.18565 2.82891 7.11736 2.89109 7.05226C2.95327 6.98717 3.00414 6.91209 3.00414 6.88543C3.00414 6.85877 3.03805 6.81242 3.07951 6.78256C3.12096 6.7527 3.15487 6.70635 3.15487 6.67969C3.15487 6.65303 3.20574 6.57795 3.26792 6.51286C3.3301 6.44776 3.38097 6.38069 3.38097 6.36374C3.38097 6.34678 3.44032 6.27359 3.51286 6.20105C3.5854 6.12851 3.64475 6.05165 3.64475 6.03017C3.64475 6.00878 3.66171 5.99126 3.68244 5.99126C3.70316 5.99126 3.72012 5.97317 3.72012 5.95113C3.72012 5.92909 3.80491 5.82839 3.90854 5.7275C4.01217 5.6266 4.09695 5.52722 4.09695 5.50678C4.09695 5.47579 4.22291 5.34381 4.659 4.91736C4.68029 4.89663 4.84647 4.72679 5.02848 4.53989C5.21049 4.35299 5.4185 4.15818 5.49076 4.10703C5.56302 4.05588 5.70462 3.93323 5.80542 3.8345C5.90622 3.73578 6.00627 3.65505 6.02766 3.65505C6.04904 3.65505 6.09388 3.62452 6.12742 3.58713C6.16096 3.54982 6.2562 3.46928 6.33911 3.40814C6.42192 3.3471 6.52263 3.2674 6.56285 3.23114C6.60308 3.19487 6.65819 3.16519 6.68532 3.16519C6.71255 3.16519 6.73478 3.15219 6.73478 3.13637C6.73478 3.12054 6.80261 3.06572 6.88551 3.01447C6.96842 2.96323 7.03625 2.9084 7.03625 2.89257C7.03625 2.87675 7.06168 2.86375 7.09277 2.86375C7.12386 2.86375 7.1493 2.84679 7.1493 2.82607C7.1493 2.80534 7.16701 2.78839 7.18858 2.78839C7.21016 2.78839 7.26423 2.75447 7.3087 2.71302C7.35316 2.67158 7.41185 2.63766 7.43899 2.63766C7.46621 2.63766 7.48844 2.62071 7.48844 2.59998C7.48844 2.57926 7.51068 2.5623 7.5379 2.5623C7.56503 2.5623 7.62373 2.52839 7.6682 2.48694C7.71266 2.44549 7.769 2.41158 7.7933 2.41158C7.8177 2.41158 7.86499 2.38181 7.89853 2.34535C7.93207 2.30899 8.01036 2.25388 8.07254 2.22298C8.13471 2.19209 8.19406 2.15827 8.20443 2.14791C8.2732 2.07886 8.89573 1.771 8.96648 1.771C9.00331 1.771 9.03346 1.75405 9.03346 1.73332C9.03346 1.7126 9.06737 1.69564 9.10883 1.69564C9.15028 1.69564 9.18419 1.67868 9.18419 1.65796C9.18419 1.63723 9.21811 1.62028 9.25956 1.62028C9.30101 1.62028 9.33502 1.60756 9.33521 1.59202C9.33558 1.5582 9.51806 1.46955 9.5874 1.46955C9.61435 1.46955 9.63639 1.4526 9.63639 1.43187C9.63639 1.41115 9.67031 1.39419 9.71176 1.39419C9.75321 1.39419 9.78712 1.37724 9.78712 1.35651C9.78712 1.33579 9.82952 1.31883 9.88133 1.31883C9.93315 1.31883 9.97554 1.30187 9.97554 1.28115C9.97554 1.26043 10.0095 1.24347 10.0509 1.24347C10.0924 1.24347 10.1263 1.22651 10.1263 1.20579C10.1263 1.18506 10.1771 1.16811 10.2393 1.16811C10.3015 1.16811 10.3524 1.15115 10.3524 1.13043C10.3524 1.1097 10.3863 1.09275 10.4277 1.09275C10.4692 1.09275 10.5031 1.07579 10.5031 1.05506C10.5031 1.03434 10.554 1.01738 10.6162 1.01738C10.6783 1.01738 10.7292 1.00043 10.7292 0.979703C10.7292 0.958979 10.7621 0.942022 10.8023 0.942022C10.8425 0.942022 10.886 0.925066 10.8988 0.904342C10.9116 0.883617 10.9625 0.866661 11.0118 0.866661C11.0612 0.866661 11.1121 0.849704 11.1249 0.82898C11.1377 0.808255 11.1886 0.791299 11.2379 0.791299C11.2873 0.791299 11.3382 0.774342 11.351 0.753618C11.3638 0.732893 11.4147 0.715937 11.464 0.715937C11.5134 0.715937 11.5643 0.698981 11.5771 0.678256C11.5899 0.657532 11.6503 0.640575 11.7112 0.640575C11.7722 0.640575 11.822 0.623619 11.822 0.602894C11.822 0.58217 11.8803 0.565213 11.9516 0.565213C12.023 0.565213 12.0918 0.548257 12.1046 0.527532C12.1175 0.506808 12.1778 0.489852 12.2388 0.489852C12.2997 0.489852 12.3496 0.474591 12.3496 0.455939C12.3496 0.437287 12.4217 0.4127 12.5097 0.401207C12.8179 0.360983 12.9716 0.329991 13.009 0.300411C13.0298 0.28402 13.2036 0.258397 13.3953 0.243513C13.587 0.228535 13.7439 0.201593 13.7439 0.183506C13.7439 0.165513 13.8626 0.150724 14.0076 0.150724C14.1584 0.150724 14.2714 0.134615 14.2714 0.113043C14.2714 0.0909052 14.4033 0.0753619 14.5917 0.0753619C14.7802 0.0753619 14.912 0.0598186 14.912 0.037681C14.912 0.0131885 15.4585 0 16.4759 0C17.4933 0 18.0398 0.0131885 18.0398 0.037681ZM15.6657 10.68C10.3274 11.5581 8.74773 18.3859 13.1916 21.3738C17.1093 24.0078 22.372 21.2163 22.372 16.5042C22.372 12.9454 19.1111 10.1133 15.6657 10.68Z" fill="#ECECEC"/>
</svg>
