<svg width="35" height="35" viewBox="0 0 35 35" fill="none" xmlns="http://www.w3.org/2000/svg">
<path fill-rule="evenodd" clip-rule="evenodd" d="M18.3851 11.6832C23.2471 12.5131 25.0921 18.401 21.5313 21.7242C17.7289 25.2728 11.523 22.4839 11.68 17.2969C11.7857 13.799 15.0025 11.1058 18.3851 11.6832Z" fill="#F44434"/>
<path fill-rule="evenodd" clip-rule="evenodd" d="M19.0398 1.03768C19.0398 1.06001 19.178 1.07536 19.3789 1.07536C19.5798 1.07536 19.7181 1.09072 19.7181 1.11304C19.7181 1.13424 19.824 1.15072 19.9607 1.15072C20.0942 1.15072 20.2125 1.16542 20.2238 1.18351C20.2349 1.2015 20.4012 1.22844 20.5933 1.24342C20.7855 1.2584 20.9597 1.28402 20.9804 1.30041C21.0157 1.3282 21.1109 1.34817 21.4612 1.40111C21.539 1.41279 21.6121 1.43757 21.6235 1.45613C21.635 1.47469 21.6932 1.48985 21.7529 1.48985C21.8127 1.48985 21.872 1.50681 21.8848 1.52753C21.8977 1.54826 21.957 1.56521 22.0167 1.56521C22.0765 1.56521 22.1358 1.58217 22.1486 1.60289C22.1614 1.62362 22.2208 1.64058 22.2805 1.64058C22.3402 1.64058 22.3996 1.65753 22.4124 1.67826C22.4252 1.69898 22.4761 1.71594 22.5255 1.71594C22.5748 1.71594 22.6236 1.7295 22.6339 1.74618C22.6442 1.76276 22.7395 1.80006 22.8458 1.82898C22.952 1.8579 23.0474 1.8952 23.0576 1.91178C23.0679 1.92846 23.1177 1.94202 23.1683 1.94202C23.2189 1.94202 23.2603 1.95898 23.2603 1.9797C23.2603 2.00043 23.3111 2.01738 23.3733 2.01738C23.4355 2.01738 23.4864 2.03434 23.4864 2.05507C23.4864 2.07579 23.5203 2.09275 23.5617 2.09275C23.6032 2.09275 23.6371 2.1097 23.6371 2.13043C23.6371 2.15115 23.688 2.16811 23.7502 2.16811C23.8123 2.16811 23.8632 2.18506 23.8632 2.20579C23.8632 2.22651 23.8971 2.24347 23.9386 2.24347C23.98 2.24347 24.0139 2.26043 24.0139 2.28115C24.0139 2.30188 24.0563 2.31883 24.1081 2.31883C24.16 2.31883 24.2024 2.33579 24.2024 2.35651C24.2024 2.37724 24.2363 2.39419 24.2777 2.39419C24.3192 2.39419 24.3531 2.41115 24.3531 2.43187C24.3531 2.4526 24.387 2.46955 24.4285 2.46955C24.4699 2.46955 24.5038 2.48651 24.5038 2.50724C24.5038 2.52796 24.5377 2.54492 24.5792 2.54492C24.6206 2.54492 24.6546 2.56187 24.6546 2.5826C24.6546 2.60332 24.6885 2.62028 24.7299 2.62028C24.7714 2.62028 24.8053 2.63723 24.8053 2.65796C24.8053 2.67868 24.8392 2.69564 24.8807 2.69564C24.9221 2.69564 24.956 2.7126 24.956 2.73332C24.956 2.75405 24.9864 2.771 25.0235 2.771C25.0879 2.771 25.5951 3.01762 25.6343 3.06812C25.6447 3.0814 25.7379 3.13415 25.8416 3.1854C25.9452 3.23655 26.0574 3.30833 26.0909 3.34498C26.1245 3.38162 26.1718 3.41158 26.1962 3.41158C26.2205 3.41158 26.2768 3.44549 26.3213 3.48694C26.3658 3.52839 26.4244 3.5623 26.4516 3.5623C26.4788 3.5623 26.501 3.57926 26.501 3.59998C26.501 3.62071 26.5222 3.63766 26.5481 3.63766C26.574 3.63776 26.6445 3.68015 26.7047 3.73186C26.7649 3.78368 26.8277 3.82607 26.8443 3.82607C26.8609 3.82607 26.9169 3.86846 26.9687 3.92027C27.0205 3.97208 27.0853 4.01447 27.1128 4.01447C27.1402 4.01447 27.1872 4.04838 27.217 4.08983C27.2469 4.13128 27.293 4.1652 27.3195 4.1652C27.3461 4.1652 27.3677 4.18215 27.3677 4.20288C27.3677 4.2236 27.3932 4.24056 27.4243 4.24056C27.4554 4.24056 27.4808 4.25704 27.4808 4.2773C27.4808 4.29745 27.5274 4.33843 27.5844 4.36839C27.6414 4.39835 27.7538 4.4835 27.8341 4.55774C27.9144 4.63197 27.9946 4.69273 28.0123 4.69273C28.0299 4.69273 28.1377 4.78599 28.2517 4.89997C28.3657 5.01396 28.4752 5.10722 28.4951 5.10722C28.515 5.10722 28.6468 5.22629 28.7879 5.37183C29.1678 5.76324 29.3354 5.93092 29.5889 6.17293C29.7145 6.29275 29.8172 6.40721 29.8172 6.42727C29.8172 6.44734 29.8341 6.46373 29.8548 6.46373C29.8756 6.46373 29.8925 6.48059 29.8925 6.50113C29.8925 6.52176 29.9943 6.64196 30.1186 6.76819C30.243 6.89452 30.3447 7.01349 30.3447 7.03262C30.3447 7.05165 30.3973 7.1223 30.4615 7.18946C30.5259 7.25663 30.6026 7.35818 30.6322 7.41517C30.6616 7.47216 30.7023 7.51879 30.7225 7.51879C30.7428 7.51879 30.7592 7.54423 30.7592 7.57532C30.7592 7.6064 30.7762 7.63184 30.7969 7.63184C30.8177 7.63184 30.8346 7.6535 30.8346 7.68007C30.8346 7.70654 30.8685 7.7527 30.91 7.78256C30.9514 7.81242 30.9853 7.85877 30.9853 7.88543C30.9853 7.91209 31.0362 7.98717 31.0984 8.05226C31.1606 8.11736 31.2114 8.18565 31.2114 8.20421C31.2114 8.22277 31.2454 8.2743 31.2868 8.31876C31.3283 8.36322 31.3622 8.42191 31.3622 8.44904C31.3622 8.47627 31.3791 8.4985 31.3999 8.4985C31.4206 8.4985 31.4375 8.52073 31.4375 8.54795C31.4375 8.57508 31.4715 8.63377 31.5129 8.67823C31.5544 8.7227 31.5883 8.77903 31.5883 8.80334C31.5883 8.82773 31.618 8.87502 31.6545 8.90856C31.6909 8.9421 31.7454 9.02038 31.7756 9.08255C31.8058 9.14472 31.8587 9.23798 31.8932 9.2898C32.0155 9.4733 32.2289 9.90955 32.2289 9.97596C32.2289 10.0131 32.2458 10.0434 32.2666 10.0434C32.2873 10.0434 32.3043 10.0773 32.3043 10.1188C32.3043 10.1602 32.3212 10.1941 32.3419 10.1941C32.3627 10.1941 32.3796 10.228 32.3796 10.2695C32.3796 10.3109 32.3966 10.3449 32.4173 10.3449C32.438 10.3449 32.455 10.3788 32.455 10.4202C32.455 10.4617 32.4719 10.4956 32.4927 10.4956C32.5134 10.4956 32.5304 10.5295 32.5304 10.5709C32.5304 10.6124 32.5473 10.6463 32.568 10.6463C32.5888 10.6463 32.6057 10.6802 32.6057 10.7217C32.6057 10.7631 32.6227 10.797 32.6434 10.797C32.6641 10.797 32.6811 10.8394 32.6811 10.8912C32.6811 10.943 32.698 10.9854 32.7188 10.9854C32.7395 10.9854 32.7565 11.0193 32.7565 11.0608C32.7565 11.1022 32.7734 11.1362 32.7941 11.1362C32.8149 11.1362 32.8318 11.187 32.8318 11.2492C32.8318 11.3114 32.8488 11.3622 32.8695 11.3622C32.8902 11.3622 32.9072 11.3962 32.9072 11.4376C32.9072 11.4791 32.9241 11.513 32.9449 11.513C32.9656 11.513 32.9826 11.5638 32.9826 11.626C32.9826 11.6882 32.9964 11.7391 33.0135 11.7391C33.0304 11.7391 33.0677 11.8249 33.0963 11.9298C33.1248 12.0348 33.1618 12.1291 33.1784 12.1393C33.1951 12.1496 33.2087 12.1984 33.2087 12.2477C33.2087 12.2971 33.2256 12.348 33.2463 12.3608C33.2671 12.3736 33.284 12.4245 33.284 12.4738C33.284 12.5232 33.301 12.5741 33.3217 12.5869C33.3424 12.5997 33.3594 12.659 33.3594 12.7188C33.3594 12.7785 33.3763 12.8378 33.3971 12.8506C33.4178 12.8635 33.4348 12.9228 33.4348 12.9825C33.4348 13.0422 33.4517 13.1016 33.4724 13.1144C33.4932 13.1272 33.5101 13.1866 33.5101 13.2463C33.5101 13.306 33.5271 13.3654 33.5478 13.3782C33.5685 13.391 33.5855 13.4426 33.5855 13.4929C33.5855 13.5996 33.6563 13.9164 33.6997 14.0036C33.7162 14.0366 33.7418 14.2189 33.7567 14.4087C33.7715 14.5983 33.7984 14.7535 33.8165 14.7535C33.8345 14.7535 33.8493 14.8722 33.8493 15.0173C33.8493 15.168 33.8654 15.2811 33.887 15.2811C33.9093 15.2811 33.9246 15.4193 33.9246 15.6202C33.9246 15.8211 33.94 15.9593 33.9623 15.9593C33.9868 15.9593 34 16.4986 34 17.502C34 18.4899 33.9864 19.0531 33.9623 19.068C33.9416 19.0808 33.9246 19.2344 33.9246 19.4094C33.9246 19.5963 33.9091 19.7274 33.887 19.7274C33.8654 19.7274 33.8493 19.8404 33.8493 19.9912C33.8493 20.1362 33.8345 20.2549 33.8165 20.2549C33.7984 20.2549 33.7715 20.4102 33.7567 20.5998C33.7418 20.7895 33.7162 20.9718 33.6997 21.0049C33.6563 21.092 33.5855 21.4088 33.5855 21.5155C33.5855 21.5659 33.5685 21.6175 33.5478 21.6303C33.5271 21.6431 33.5101 21.7024 33.5101 21.7622C33.5101 21.8219 33.4932 21.8812 33.4724 21.8941C33.4517 21.9069 33.4348 21.9662 33.4348 22.0259C33.4348 22.0857 33.4178 22.145 33.3971 22.1578C33.3763 22.1706 33.3594 22.23 33.3594 22.2897C33.3594 22.3494 33.3424 22.4088 33.3217 22.4216C33.301 22.4344 33.284 22.4829 33.284 22.5294C33.284 22.5758 33.2697 22.6299 33.2523 22.6496C33.2348 22.6692 33.1797 22.8167 33.1298 22.9772C33.0799 23.1377 33.0264 23.2691 33.0108 23.2692C32.9953 23.2693 32.9826 23.3203 32.9826 23.3824C32.9826 23.4446 32.9656 23.4955 32.9449 23.4955C32.9241 23.4955 32.9072 23.5294 32.9072 23.5709C32.9072 23.6123 32.8902 23.6462 32.8695 23.6462C32.8488 23.6462 32.8318 23.6971 32.8318 23.7593C32.8318 23.8214 32.8149 23.8723 32.7941 23.8723C32.7734 23.8723 32.7565 23.9062 32.7565 23.9477C32.7565 23.9891 32.7395 24.023 32.7188 24.023C32.698 24.023 32.6811 24.0654 32.6811 24.1172C32.6811 24.169 32.6641 24.2114 32.6434 24.2114C32.6227 24.2114 32.6057 24.2453 32.6057 24.2868C32.6057 24.3282 32.5888 24.3622 32.568 24.3622C32.5473 24.3622 32.5304 24.3842 32.5304 24.4111C32.5304 24.4805 32.4417 24.6629 32.4079 24.6633C32.3923 24.6635 32.3796 24.6975 32.3796 24.739C32.3796 24.7804 32.3627 24.8143 32.3419 24.8143C32.3212 24.8143 32.3043 24.8482 32.3043 24.8897C32.3043 24.9311 32.2873 24.965 32.2666 24.965C32.2458 24.965 32.2288 24.9947 32.2287 25.031C32.2285 25.1062 31.9979 25.5743 31.927 25.6433C31.9163 25.6537 31.8657 25.7469 31.8145 25.8505C31.7633 25.9542 31.6915 26.0664 31.6549 26.0999C31.6182 26.1334 31.5883 26.1807 31.5883 26.2051C31.5883 26.2294 31.5544 26.2858 31.5129 26.3302C31.4715 26.3747 31.4375 26.4334 31.4375 26.4605C31.4375 26.4877 31.4206 26.51 31.3999 26.51C31.3791 26.51 31.3622 26.5322 31.3622 26.5594C31.3622 26.5866 31.3283 26.6452 31.2868 26.6897C31.2454 26.7342 31.2114 26.7857 31.2114 26.8043C31.2114 26.8228 31.1606 26.8911 31.0984 26.9562C31.0362 27.0213 30.9853 27.0964 30.9853 27.123C30.9853 27.1497 30.9514 27.196 30.91 27.2259C30.8685 27.2558 30.8346 27.3019 30.8346 27.3284C30.8346 27.355 30.8177 27.3766 30.7969 27.3766C30.7762 27.3766 30.7592 27.4021 30.7592 27.4331C30.7592 27.4642 30.746 27.4897 30.7297 27.4897C30.7135 27.4897 30.6724 27.5366 30.6386 27.5939C30.6046 27.6512 30.5247 27.7529 30.4609 27.8197C30.397 27.8864 30.3447 27.9563 30.3447 27.9748C30.3447 27.9933 30.2345 28.122 30.0998 28.2607C29.9651 28.3995 29.8548 28.527 29.8548 28.5441C29.8548 28.5612 29.6943 28.7337 29.4981 28.9274C29.3019 29.1211 29.1242 29.2965 29.1033 29.3172C29.0822 29.3379 28.9639 29.4608 28.8403 29.5904C28.7166 29.7199 28.5975 29.8259 28.5757 29.8259C28.5538 29.8259 28.5359 29.8428 28.5359 29.8636C28.5359 29.8843 28.5191 29.9012 28.4985 29.9012C28.4779 29.9012 28.3577 30.003 28.2314 30.1273C28.1051 30.2517 27.9846 30.3534 27.9637 30.3534C27.9427 30.3534 27.8781 30.4043 27.8199 30.4665C27.7618 30.5286 27.6993 30.5795 27.6808 30.5795C27.6623 30.5795 27.5843 30.6388 27.5074 30.7114C27.4305 30.7839 27.3459 30.8433 27.3194 30.8433C27.2929 30.8433 27.2469 30.8772 27.217 30.9186C27.1872 30.9601 27.1408 30.994 27.1141 30.994C27.0875 30.994 27.0124 31.0449 26.9473 31.107C26.8822 31.1692 26.8139 31.2201 26.7953 31.2201C26.7768 31.2201 26.7252 31.254 26.6808 31.2954C26.6363 31.3369 26.5776 31.3708 26.5505 31.3708C26.5233 31.3708 26.501 31.3878 26.501 31.4085C26.501 31.4292 26.4709 31.4462 26.434 31.4462C26.3971 31.4462 26.3425 31.4801 26.3126 31.5215C26.2828 31.563 26.2343 31.5969 26.2051 31.5969C26.1758 31.5969 26.1245 31.6268 26.0909 31.6635C26.0574 31.7001 25.9452 31.7721 25.8416 31.8234C25.7379 31.8748 25.6325 31.9362 25.6074 31.96C25.5821 31.9839 25.3956 32.0843 25.1929 32.1831C24.99 32.2819 24.8157 32.3754 24.8052 32.3908C24.7948 32.4063 24.7228 32.4309 24.645 32.4455C24.5674 32.46 24.5038 32.487 24.5038 32.5055C24.5038 32.5238 24.4699 32.5389 24.4285 32.5389C24.387 32.5389 24.3531 32.5559 24.3531 32.5766C24.3531 32.5973 24.3202 32.6143 24.28 32.6143C24.2398 32.6143 24.1963 32.6312 24.1835 32.6519C24.1707 32.6727 24.1273 32.6896 24.087 32.6896C24.0468 32.6896 24.0139 32.7066 24.0139 32.7273C24.0139 32.748 23.98 32.765 23.9386 32.765C23.8971 32.765 23.8632 32.7819 23.8632 32.8027C23.8632 32.8234 23.8123 32.8404 23.7502 32.8404C23.688 32.8404 23.6371 32.8573 23.6371 32.878C23.6371 32.8988 23.6032 32.9157 23.5617 32.9157C23.5203 32.9157 23.4864 32.9327 23.4864 32.9534C23.4864 32.9741 23.4355 32.9911 23.3733 32.9911C23.3111 32.9911 23.2603 33.008 23.2603 33.0288C23.2603 33.0495 23.2189 33.0664 23.1683 33.0664C23.1177 33.0664 23.0679 33.08 23.0576 33.0967C23.0474 33.1133 22.952 33.1506 22.8458 33.1795C22.7395 33.2084 22.6442 33.2457 22.6339 33.2623C22.6236 33.279 22.5748 33.2925 22.5255 33.2925C22.4761 33.2925 22.4252 33.3095 22.4124 33.3302C22.3996 33.3509 22.3402 33.3679 22.2805 33.3679C22.2208 33.3679 22.1614 33.3848 22.1486 33.4056C22.1358 33.4263 22.0765 33.4432 22.0167 33.4432C21.957 33.4432 21.8977 33.4602 21.8848 33.4809C21.872 33.5017 21.8127 33.5186 21.7529 33.5186C21.6932 33.5186 21.6339 33.5356 21.6211 33.5563C21.6082 33.577 21.5319 33.594 21.4515 33.594C21.371 33.594 21.2947 33.6109 21.2819 33.6317C21.2691 33.6524 21.2036 33.6693 21.1364 33.6693C21.0693 33.6693 20.9982 33.6847 20.9786 33.7033C20.9589 33.7221 20.8664 33.747 20.7732 33.7587C20.3351 33.8137 20.2595 33.8266 20.1891 33.8582C20.1476 33.8768 20.012 33.9014 19.8876 33.9129C19.7633 33.9243 19.5004 33.9488 19.3035 33.9673C18.8323 34.0116 16.1487 34.0106 15.6671 33.9661C15.4598 33.9469 15.1885 33.9217 15.0642 33.9101C14.9398 33.8985 14.822 33.8736 14.8023 33.8545C14.7826 33.8356 14.6861 33.8201 14.5879 33.8201C14.4896 33.8201 14.3987 33.8031 14.3859 33.7824C14.3731 33.7617 14.2883 33.7447 14.1975 33.7447C14.1066 33.7447 14.0219 33.7277 14.009 33.707C13.9962 33.6863 13.9199 33.6693 13.8395 33.6693C13.759 33.6693 13.6827 33.6524 13.6699 33.6317C13.6571 33.6109 13.5797 33.594 13.4981 33.594C13.4164 33.594 13.3496 33.577 13.3496 33.5563C13.3496 33.5356 13.2997 33.5186 13.2388 33.5186C13.1778 33.5186 13.1175 33.5017 13.1046 33.4809C13.0918 33.4602 13.023 33.4432 12.9516 33.4432C12.8803 33.4432 12.822 33.4263 12.822 33.4056C12.822 33.3848 12.7627 33.3679 12.6901 33.3679C12.6176 33.3679 12.5582 33.3509 12.5582 33.3302C12.5582 33.3095 12.5169 33.2925 12.4663 33.2925C12.4157 33.2925 12.3638 33.2756 12.351 33.2548C12.3382 33.2341 12.2873 33.2172 12.2379 33.2172C12.1886 33.2172 12.1377 33.2002 12.1249 33.1795C12.1121 33.1588 12.0612 33.1418 12.0118 33.1418C11.9625 33.1418 11.9116 33.1248 11.8988 33.1041C11.886 33.0834 11.8425 33.0664 11.8023 33.0664C11.7621 33.0664 11.7292 33.0495 11.7292 33.0288C11.7292 33.008 11.6783 32.9911 11.6162 32.9911C11.554 32.9911 11.5031 32.9741 11.5031 32.9534C11.5031 32.9327 11.4692 32.9157 11.4277 32.9157C11.3863 32.9157 11.3524 32.8988 11.3524 32.878C11.3524 32.8573 11.311 32.8404 11.2604 32.8404C11.2098 32.8404 11.1579 32.8234 11.1451 32.8027C11.1323 32.7819 11.0889 32.765 11.0486 32.765C11.0084 32.765 10.9755 32.748 10.9755 32.7273C10.9755 32.7066 10.9331 32.6896 10.8813 32.6896C10.8295 32.6896 10.7871 32.6727 10.7871 32.6519C10.7871 32.6312 10.7532 32.6143 10.7118 32.6143C10.6703 32.6143 10.6364 32.5973 10.6364 32.5766C10.6364 32.5559 10.6129 32.5389 10.5842 32.5389C10.5555 32.5389 10.4834 32.5136 10.424 32.4826C10.3647 32.4517 10.2864 32.4262 10.2501 32.4261C10.2139 32.426 10.1842 32.4089 10.1842 32.3882C10.1842 32.3675 10.1575 32.3505 10.1249 32.3505C10.0924 32.3505 10.0395 32.3242 10.0074 32.2921C9.97524 32.2601 9.90015 32.224 9.84052 32.212C9.78079 32.2002 9.73199 32.1756 9.73199 32.1574C9.73199 32.1393 9.69807 32.1244 9.65662 32.1244C9.61517 32.1244 9.58126 32.1094 9.58126 32.0912C9.58126 32.0728 9.55158 32.0484 9.51531 32.0369C9.45059 32.0165 9.24154 31.8979 9.20443 31.8606C9.19406 31.8502 9.13471 31.8164 9.07253 31.7855C9.01036 31.7546 8.93207 31.6995 8.89853 31.6631C8.86499 31.6267 8.8177 31.5969 8.7933 31.5969C8.76899 31.5969 8.71266 31.563 8.66819 31.5215C8.62373 31.4801 8.56503 31.4462 8.5379 31.4462C8.51068 31.4462 8.48844 31.4292 8.48844 31.4085C8.48844 31.3878 8.46621 31.3708 8.43898 31.3708C8.41185 31.3708 8.35316 31.3369 8.30869 31.2954C8.26423 31.254 8.2127 31.2201 8.19414 31.2201C8.17558 31.2201 8.10728 31.1692 8.04218 31.107C7.97708 31.0449 7.902 30.994 7.87534 30.994C7.84868 30.994 7.80232 30.9601 7.77246 30.9186C7.7426 30.8772 7.69926 30.8433 7.67609 30.8433C7.62474 30.8433 7.30057 30.5989 7.16388 30.457C7.10886 30.4 7.04857 30.3534 7.02991 30.3534C7.01117 30.3534 6.8902 30.2517 6.76114 30.1273C6.63207 30.003 6.51007 29.9012 6.49001 29.9012C6.44177 29.9012 5.09695 28.5556 5.09695 28.5073C5.09695 28.4867 4.99521 28.3665 4.87085 28.2403C4.7465 28.1139 4.64475 27.9935 4.64475 27.9725C4.64475 27.9515 4.59812 27.8895 4.54112 27.8344C4.39925 27.6978 4.15487 27.3736 4.15487 27.3223C4.15487 27.2991 4.12096 27.2558 4.0795 27.2259C4.03805 27.196 4.00414 27.1497 4.00414 27.123C4.00414 27.0964 3.95327 27.0213 3.89109 26.9562C3.82891 26.8911 3.77804 26.8228 3.77804 26.8043C3.77804 26.7857 3.74412 26.7342 3.70267 26.6897C3.66122 26.6452 3.6273 26.5866 3.6273 26.5594C3.6273 26.5322 3.61035 26.51 3.58962 26.51C3.5689 26.51 3.55194 26.4877 3.55194 26.4605C3.55194 26.4334 3.51803 26.3747 3.47657 26.3302C3.43512 26.2858 3.40121 26.2294 3.40121 26.2051C3.40121 26.1807 3.37021 26.1334 3.33244 26.0999C3.29456 26.0664 3.23955 25.9838 3.21015 25.9165C3.18076 25.8491 3.14392 25.794 3.12819 25.794C3.11255 25.794 3.09974 25.7601 3.09974 25.7187C3.09974 25.6772 3.08542 25.6433 3.06799 25.6433C3.05047 25.6433 2.99536 25.5628 2.94552 25.4643C2.89559 25.3659 2.84208 25.2797 2.82654 25.2728C2.81099 25.2658 2.79827 25.2396 2.79827 25.2143C2.79827 25.1475 2.70887 24.9657 2.6758 24.9653C2.66026 24.9651 2.64754 24.9311 2.64754 24.8897C2.64754 24.8482 2.63058 24.8143 2.60986 24.8143C2.58913 24.8143 2.57208 24.7846 2.57199 24.7484C2.5718 24.7121 2.54636 24.6338 2.51546 24.5745C2.48447 24.5151 2.45912 24.4431 2.45912 24.4143C2.45912 24.3856 2.44217 24.3622 2.42144 24.3622C2.40072 24.3622 2.38376 24.3282 2.38376 24.2868C2.38376 24.2453 2.3668 24.2114 2.34608 24.2114C2.32535 24.2114 2.30839 24.169 2.30839 24.1172C2.30839 24.0654 2.29143 24.023 2.27071 24.023C2.24998 24.023 2.23303 23.9901 2.23303 23.9499C2.23303 23.9097 2.21607 23.8663 2.19534 23.8535C2.17462 23.8406 2.15766 23.7887 2.15766 23.7382C2.15766 23.6876 2.1407 23.6462 2.11997 23.6462C2.09925 23.6462 2.08229 23.6123 2.08229 23.5709C2.08229 23.5294 2.06533 23.4955 2.04461 23.4955C2.02388 23.4955 2.00693 23.4446 2.00693 23.3824C2.00693 23.3203 1.99308 23.2694 1.97603 23.2694C1.95907 23.2694 1.92176 23.1836 1.89322 23.0786C1.86467 22.9737 1.82765 22.8794 1.81107 22.8691C1.79439 22.8589 1.78083 22.8101 1.78083 22.7607C1.78083 22.7114 1.76387 22.6605 1.74314 22.6477C1.72242 22.6349 1.70546 22.584 1.70546 22.5346C1.70546 22.4853 1.6885 22.4344 1.66778 22.4216C1.64705 22.4088 1.63009 22.3484 1.63009 22.2874C1.63009 22.2265 1.61314 22.1767 1.59241 22.1767C1.57169 22.1767 1.55473 22.1183 1.55473 22.047C1.55473 21.9757 1.53777 21.9069 1.51704 21.8941C1.49632 21.8812 1.47936 21.8209 1.47936 21.7599C1.47936 21.699 1.4641 21.6491 1.44545 21.6491C1.42679 21.6491 1.40192 21.5771 1.39015 21.489C1.33861 21.1038 1.31864 21.0069 1.28699 20.9873C1.26843 20.9758 1.25326 20.8921 1.25326 20.8013C1.25326 20.7105 1.2363 20.6257 1.21558 20.6129C1.19485 20.6001 1.17789 20.5092 1.17789 20.4109C1.17789 20.3127 1.16235 20.2162 1.14341 20.1965C1.12438 20.1768 1.0997 20.059 1.08849 19.9346C1.07738 19.8103 1.04949 19.5136 1.02669 19.2752C0.981283 18.8016 0.997768 15.5574 1.04638 15.3941C1.07229 15.3071 1.1029 15.1022 1.16207 14.6216C1.17478 14.518 1.20051 14.4171 1.21925 14.3974C1.23791 14.3778 1.25326 14.2898 1.25326 14.2019C1.25326 14.114 1.26843 14.0327 1.28699 14.0212C1.31864 14.0016 1.33861 13.9047 1.39015 13.5195C1.40192 13.4314 1.42679 13.3593 1.44545 13.3593C1.4641 13.3593 1.47936 13.3095 1.47936 13.2486C1.47936 13.1876 1.49632 13.1272 1.51704 13.1144C1.53777 13.1016 1.55473 13.0327 1.55473 12.9614C1.55473 12.8901 1.57169 12.8318 1.59241 12.8318C1.61314 12.8318 1.63009 12.782 1.63009 12.721C1.63009 12.6601 1.64705 12.5997 1.66778 12.5869C1.6885 12.5741 1.70546 12.5232 1.70546 12.4738C1.70546 12.4245 1.72242 12.3736 1.74314 12.3608C1.76387 12.348 1.78083 12.2971 1.78083 12.2477C1.78083 12.1984 1.79439 12.1496 1.81107 12.1393C1.82765 12.1291 1.86467 12.0348 1.89322 11.9298C1.92176 11.8249 1.95907 11.7391 1.97603 11.7391C1.99308 11.7391 2.00693 11.6882 2.00693 11.626C2.00693 11.5638 2.02388 11.513 2.04461 11.513C2.06533 11.513 2.08229 11.4791 2.08229 11.4376C2.08229 11.3962 2.09925 11.3622 2.11997 11.3622C2.1407 11.3622 2.15766 11.3114 2.15766 11.2492C2.15766 11.187 2.17462 11.1362 2.19534 11.1362C2.21607 11.1362 2.23303 11.1022 2.23303 11.0608C2.23303 11.0193 2.24998 10.9854 2.27071 10.9854C2.29143 10.9854 2.30839 10.943 2.30839 10.8912C2.30839 10.8394 2.32535 10.797 2.34608 10.797C2.3668 10.797 2.38376 10.7631 2.38376 10.7217C2.38376 10.6802 2.40072 10.6463 2.42144 10.6463C2.44217 10.6463 2.45912 10.6124 2.45912 10.5709C2.45912 10.5295 2.47458 10.4956 2.49351 10.4956C2.51245 10.4956 2.5393 10.4278 2.55333 10.3449C2.56737 10.262 2.59422 10.1941 2.61316 10.1941C2.63209 10.1941 2.64754 10.1675 2.64754 10.1349C2.64754 10.1024 2.67382 10.0494 2.70595 10.0173C2.73798 9.9852 2.77406 9.91012 2.78603 9.85049C2.7979 9.79076 2.81843 9.74197 2.83143 9.74197C2.84453 9.74197 2.8791 9.68686 2.90831 9.6195C2.93742 9.55215 3.00563 9.42922 3.05989 9.34632C3.11415 9.26342 3.1834 9.14472 3.21364 9.08255C3.24397 9.02038 3.29861 8.9421 3.33498 8.90856C3.37144 8.87502 3.40121 8.82773 3.40121 8.80334C3.40121 8.77903 3.43512 8.7227 3.47657 8.67823C3.51803 8.63377 3.55194 8.57508 3.55194 8.54795C3.55194 8.52073 3.5689 8.4985 3.58962 8.4985C3.61035 8.4985 3.6273 8.47627 3.6273 8.44904C3.6273 8.42191 3.66122 8.36322 3.70267 8.31876C3.74412 8.2743 3.77804 8.22277 3.77804 8.20421C3.77804 8.18565 3.82891 8.11736 3.89109 8.05226C3.95327 7.98717 4.00414 7.91209 4.00414 7.88543C4.00414 7.85877 4.03805 7.81242 4.0795 7.78256C4.12096 7.7527 4.15487 7.70635 4.15487 7.67969C4.15487 7.65303 4.20574 7.57795 4.26792 7.51286C4.3301 7.44777 4.38097 7.38069 4.38097 7.36374C4.38097 7.34678 4.44032 7.27359 4.51286 7.20105C4.5854 7.12851 4.64475 7.05165 4.64475 7.03017C4.64475 7.00878 4.66171 6.99126 4.68244 6.99126C4.70316 6.99126 4.72012 6.97317 4.72012 6.95113C4.72012 6.92909 4.80491 6.82839 4.90854 6.7275C5.01216 6.6266 5.09695 6.52722 5.09695 6.50678C5.09695 6.47579 5.22291 6.34381 5.659 5.91736C5.68029 5.89663 5.84647 5.72678 6.02848 5.53989C6.21049 5.35299 6.4185 5.15818 6.49076 5.10703C6.56302 5.05588 6.70461 4.93323 6.80542 4.8345C6.90622 4.73578 7.00627 4.65505 7.02765 4.65505C7.04904 4.65505 7.09388 4.62453 7.12742 4.58713C7.16096 4.54982 7.2562 4.46928 7.33911 4.40814C7.42191 4.3471 7.52262 4.2674 7.56285 4.23114C7.60308 4.19487 7.65819 4.1652 7.68532 4.1652C7.71255 4.1652 7.73478 4.1522 7.73478 4.13637C7.73478 4.12054 7.80261 4.06572 7.88551 4.01447C7.96841 3.96323 8.03625 3.9084 8.03625 3.89257C8.03625 3.87675 8.06168 3.86375 8.09277 3.86375C8.12386 3.86375 8.14929 3.84679 8.14929 3.82607C8.14929 3.80534 8.16701 3.78839 8.18858 3.78839C8.21015 3.78839 8.26423 3.75447 8.30869 3.71302C8.35316 3.67158 8.41185 3.63766 8.43898 3.63766C8.46621 3.63766 8.48844 3.62071 8.48844 3.59998C8.48844 3.57926 8.51068 3.5623 8.5379 3.5623C8.56503 3.5623 8.62373 3.52839 8.66819 3.48694C8.71266 3.44549 8.76899 3.41158 8.7933 3.41158C8.8177 3.41158 8.86499 3.38181 8.89853 3.34535C8.93207 3.30899 9.01036 3.25388 9.07253 3.22298C9.13471 3.19209 9.19406 3.15827 9.20443 3.14791C9.2732 3.07886 9.89572 2.771 9.96648 2.771C10.0033 2.771 10.0335 2.75405 10.0335 2.73332C10.0335 2.7126 10.0674 2.69564 10.1088 2.69564C10.1503 2.69564 10.1842 2.67868 10.1842 2.65796C10.1842 2.63723 10.2181 2.62028 10.2596 2.62028C10.301 2.62028 10.335 2.60756 10.3352 2.59202C10.3356 2.5582 10.5181 2.46955 10.5874 2.46955C10.6143 2.46955 10.6364 2.4526 10.6364 2.43187C10.6364 2.41115 10.6703 2.39419 10.7118 2.39419C10.7532 2.39419 10.7871 2.37724 10.7871 2.35651C10.7871 2.33579 10.8295 2.31883 10.8813 2.31883C10.9331 2.31883 10.9755 2.30188 10.9755 2.28115C10.9755 2.26043 11.0095 2.24347 11.0509 2.24347C11.0924 2.24347 11.1263 2.22651 11.1263 2.20579C11.1263 2.18506 11.1771 2.16811 11.2393 2.16811C11.3015 2.16811 11.3524 2.15115 11.3524 2.13043C11.3524 2.1097 11.3863 2.09275 11.4277 2.09275C11.4692 2.09275 11.5031 2.07579 11.5031 2.05507C11.5031 2.03434 11.554 2.01738 11.6162 2.01738C11.6783 2.01738 11.7292 2.00043 11.7292 1.9797C11.7292 1.95898 11.7621 1.94202 11.8023 1.94202C11.8425 1.94202 11.886 1.92507 11.8988 1.90434C11.9116 1.88362 11.9625 1.86666 12.0118 1.86666C12.0612 1.86666 12.1121 1.8497 12.1249 1.82898C12.1377 1.80826 12.1886 1.7913 12.2379 1.7913C12.2873 1.7913 12.3382 1.77434 12.351 1.75362C12.3638 1.73289 12.4147 1.71594 12.464 1.71594C12.5134 1.71594 12.5643 1.69898 12.5771 1.67826C12.5899 1.65753 12.6503 1.64058 12.7112 1.64058C12.7722 1.64058 12.822 1.62362 12.822 1.60289C12.822 1.58217 12.8803 1.56521 12.9516 1.56521C13.023 1.56521 13.0918 1.54826 13.1046 1.52753C13.1175 1.50681 13.1778 1.48985 13.2388 1.48985C13.2997 1.48985 13.3496 1.47459 13.3496 1.45594C13.3496 1.43729 13.4217 1.4127 13.5097 1.40121C13.8179 1.36098 13.9716 1.32999 14.009 1.30041C14.0298 1.28402 14.2036 1.2584 14.3953 1.24351C14.587 1.22853 14.7439 1.20159 14.7439 1.18351C14.7439 1.16551 14.8626 1.15072 15.0076 1.15072C15.1584 1.15072 15.2714 1.13462 15.2714 1.11304C15.2714 1.09091 15.4033 1.07536 15.5917 1.07536C15.7802 1.07536 15.912 1.05982 15.912 1.03768C15.912 1.01319 16.4585 1 17.4759 1C18.4933 1 19.0398 1.01319 19.0398 1.03768ZM16.6657 11.68C11.3274 12.5581 9.74773 19.3859 14.1916 22.3738C18.1093 25.0078 23.372 22.2163 23.372 17.5042C23.372 13.9454 20.1111 11.1133 16.6657 11.68Z" fill="#ECECEC"/>
</svg>
