<svg width="35" height="35" viewBox="0 0 35 35" fill="none" xmlns="http://www.w3.org/2000/svg">
<path d="M19.1826 32.9327C18.9535 32.8619 18.9656 32.8683 12.7568 28.1444L8.59153 24.9715L5.81869 24.9522L3.04584 24.9329L2.7565 24.7398C2.37674 24.4888 2.14166 24.1284 2.06329 23.6843C1.9789 23.2145 1.9789 11.7844 2.06329 11.3146C2.14166 10.8705 2.37674 10.5101 2.7565 10.2591L3.04584 10.066L5.81869 10.0467L8.59153 10.0274L9.07979 9.65411C13.2029 6.50053 18.7245 2.31721 18.9113 2.2078C19.49 1.86026 20.0627 1.95037 20.5389 2.46524C20.7318 2.67119 20.8704 2.89001 20.9186 3.05734C21.0271 3.44349 21.0271 31.5554 20.9186 31.9415C20.8101 32.3277 20.3158 32.8361 19.9542 32.9327C19.6226 33.0228 19.4719 33.0228 19.1826 32.9327Z" fill="black"/>
<path d="M28.8646 6.32272C29.8264 7.64172 30.6206 9.3324 31.1703 11.2841C31.7193 13.2337 32.0046 15.3745 32.0002 17.5479C31.9959 19.7213 31.7021 21.8586 31.1454 23.8015C30.5881 25.7465 29.7875 27.4272 28.8213 28.7343" stroke="black" stroke-width="2"/>
<path d="M24.842 9.09375C25.563 10.1715 26.1461 11.4687 26.5473 12.9164C26.9482 14.3634 27.1563 15.9214 27.1563 17.4994C27.1563 19.0774 26.9482 20.6354 26.5473 22.0824C26.1461 23.5302 25.5629 24.8273 24.842 25.9051" stroke="black" stroke-width="2"/>
</svg>
